PathFileType	4	(X/Y/Z)	Patient4_TMGait_0pt7_02_left_10.trc.trc
DataRate	CameraRate	NumFrames	NumMarkers	Units	OrigDataRate	OrigDataStartFrame	OrigNumFrames
85.365853658537	85.365853658537	5	33	mm	85.365853658537	1	       141
Frame#	Time	Sacral			L.Shoulder			Chest			R.Shoulder			Neck			R.ASIS			L.ASIS			R.Thigh.Superior			R.Thigh.Lateral			R.Thigh.Inferior			R.Patella			L.Thigh.Superior			L.Thigh.Lateral			L.Thigh.Inferior			L.Patella			L.Shank.Superior			L.Shank.Lateral			L.Shank.Inferior			R.Shank.Superior			R.Shank.Lateral			R.Shank.Inferior			R.Heel			R.Midfoot.Superior			R.Midfoot.Lateral			R.Toe			L.Heel			L.Midfoot.Lateral			L.Midfoot.Superior			L.Toe			L.Elbow			L.Wrist			R.Elbow			R.Wrist			
		X1	Y1	Z1	X2	Y2	Z2	X3	Y3	Z3	X4	Y4	Z4	X5	Y5	Z5	X6	Y6	Z6	X7	Y7	Z7	X8	Y8	Z8	X9	Y9	Z9	X10	Y10	Z10	X11	Y11	Z11	X12	Y12	Z12	X13	Y13	Z13	X14	Y14	Z14	X15	Y15	Z15	X16	Y16	Z16	X17	Y17	Z17	X18	Y18	Z18	X19	Y19	Z19	X20	Y20	Z20	X21	Y21	Z21	X22	Y22	Z22	X23	Y23	Z23	X24	Y24	Z24	X25	Y25	Z25	X26	Y26	Z26	X27	Y27	Z27	X28	Y28	Z28	X29	Y29	Z29	X30	Y30	Z30	X31	Y31	Z31	X32	Y32	Z32	X33	Y33	Z33	

1	11.050000000000	791.139965608807	1016.157587018930	529.546515457711	978.334206168690	1427.614055524550	317.403794891372	1096.650001956153	1350.967753941172	465.637031818388	1043.575360623257	1439.178437513143	645.025260520215	1007.686982837214	1490.374266512227	466.782428066591	1025.305229657895	940.054356777195	621.999061733647	982.981951324630	961.187581587687	351.207952074641	1062.912398341714	740.517959055244	593.355093706055	981.733855529341	632.864002541012	653.472466874270	1055.424953293358	581.702787324646	569.358163445579	1055.158924813023	492.073103671978	574.132356717052	1072.876654484069	792.478914173979	383.507788781821	1036.921093690732	664.914374299750	304.328189844529	1143.951618230615	606.483301317867	365.379687885898	1162.821764379847	517.713157345775	357.216794752093	1100.360493519056	447.207340369098	348.023382565616	961.716619303335	394.288753466086	300.390158716702	962.505012535617	261.939955343787	350.614894395217	1025.043198689536	404.468677982061	580.763843603786	951.999163615395	301.350144759932	641.140662223804	991.939604857054	206.786014038933	575.297295326643	854.338705066586	43.186275244976	543.028234909446	1026.127673872148	97.581559395563	580.467130607265	936.575318508761	37.194024822502	617.708396734334	1145.333250780752	42.613791102472	610.191137716057	779.763716207126	181.896492081577	389.220578147197	838.990795837454	139.148302580338	308.262442495175	943.957715543713	154.688826414838	328.073756728495	1028.593164771036	47.382638880073	299.110540767627	901.164464348296	1075.387727592719	234.023728558097	1004.697337009824	833.131416767538	224.247368477310	982.952254858729	1100.021131795477	780.518102542365	1111.848322765964	872.038663676032	754.661376719868	
2	11.061714285714	789.618967260657	1016.748823272468	531.281063082883	976.554285940276	1427.251589466571	317.915104761577	1095.741794661462	1350.650256940436	465.428659093227	1044.254784926344	1439.228142881186	645.116069618695	1006.976631870988	1490.219541732874	467.093489906610	1024.109595971953	939.689552868691	622.230510599253	980.488182790235	961.564727775475	351.688523938090	1059.234623035804	739.532344207181	592.938511417040	977.461869369671	632.721977258976	653.841066308475	1049.680053034805	580.802572512424	569.209628354060	1048.339831257960	491.373615972386	574.044226001875	1071.972094987015	795.731083829437	383.678593353223	1037.894625110080	667.412255639872	304.562359788506	1145.952601397608	611.111836801609	365.412597051985	1166.885723766752	523.703971579007	356.951589109969	1108.415333352796	451.772757767986	347.443494620927	974.029957012040	390.521172242258	300.379621656023	984.075190290914	258.954208627967	349.676371292016	1017.947444906558	403.917901367861	580.858633760139	944.583360155249	301.083762969881	641.276529071433	983.833100645049	206.405683895866	575.327227613228	845.653680343541	43.079714215846	543.090822322722	1017.287831181269	97.396061396548	580.317842639541	927.878061780077	37.153189306326	617.801377267359	1136.596695640954	42.575991714162	610.228735412163	808.919037003459	166.906607508371	389.344399947694	869.524950531194	129.106208936719	307.480388310189	972.626643199099	151.572673149941	326.478522924204	1063.530538575942	51.320365917550	295.803883255057	895.273075103850	1075.513704290789	236.739474687652	979.180695659128	828.928859873214	226.828266251799	994.512864433308	1098.696742327262	780.381315671424	1138.749674322900	884.502769214228	748.575453295765	
3	11.073428571429	788.127984016079	1017.306483887372	532.954710256232	974.820952084552	1426.882800018094	318.399196453281	1094.849845592452	1350.314666598508	465.211911801647	1044.908345568997	1439.246044725069	645.193668955529	1006.284301422756	1490.053534699796	467.386115706770	1022.920478831011	939.325720697074	622.455333035616	978.055004502357	961.919321063503	352.148282143594	1055.616744568992	738.553710285870	592.536299674966	973.244108664082	632.567168664124	654.208687382194	1044.033528308620	579.897490026799	569.081124500001	1041.622892385623	490.679415999463	573.971296246846	1071.009567039258	798.832470856685	383.863997274510	1038.780190443419	669.799402433815	304.780790998784	1147.768344873550	615.547076917477	365.528825233172	1170.755283379936	529.540504740964	356.792767997596	1116.257429055808	456.246433460425	346.977366309955	986.315154748702	386.803225854524	300.251745680138	1005.402845871401	256.141882678357	348.764288873231	1010.963394040294	403.367297291759	580.949745774500	937.278118698167	300.817453591601	641.412267539758	975.837792355997	206.025806717397	575.352921924798	837.068076660654	42.983248913160	543.149239143383	1008.556802459563	97.213160831844	580.173050805019	919.284693660699	37.113076430263	617.890187559397	1127.966283692927	42.533884790098	610.266768002208	837.842117630780	152.326727193267	389.187546784888	899.922277207917	119.439541584119	306.586319178969	1001.035950773348	148.721933699930	324.981761948228	1098.098629296709	55.527169494310	292.890969037639	889.288726867318	1075.695439846797	239.341601222599	954.140291980503	825.104541786952	229.359610067487	1006.008490140471	1097.405990529342	780.198440733475	1165.224392813356	897.165745248925	742.407888077581	
4	11.085142857143	786.699032157632	1017.797311275156	534.496554531715	973.166082199880	1426.507619107459	318.828398692774	1093.980457309470	1349.948719407683	464.972941100495	1045.506409619813	1439.206791684203	645.238207448073	1005.616861567094	1489.868137726440	467.640746862137	1021.745128964559	938.968239457236	622.664957530692	975.753944508043	962.227633952264	352.556617592144	1052.085170119793	737.582470405074	592.167275606275	969.078613683211	632.391232417407	654.570417644341	1038.515630612948	578.978876784214	568.993349576581	1035.035390347978	489.994668769299	573.927573265335	1069.945216135890	801.635389050055	384.081017536111	1039.503591555983	671.964345110992	304.963252987629	1149.234319952016	619.596710988566	365.790084546427	1174.248272165364	535.072109115952	356.826536657509	1123.695845603621	460.535043341469	346.711327386192	998.552436482651	383.172847120334	299.912731000512	1026.287587496954	253.664482481538	347.907933401584	1004.119529242548	402.819479024942	581.033951890567	930.108731187925	300.556122162525	641.548557650461	967.979825606444	205.650619762853	575.372643060322	828.599486854156	42.906117851780	543.201072716672	999.960733691647	97.036396278051	580.038493597788	910.814917902264	37.075229347178	617.971843269832	1119.464524899315	42.482771533409	610.305365680273	866.374256286472	138.529958012431	388.544021199441	930.086018072730	110.499307530265	305.509847344402	1028.969747290519	146.393657130485	323.675452108900	1131.969862073466	60.282359894120	290.703315568723	883.076359112739	1076.028774712271	241.717329285754	929.940382225999	822.027385584221	231.814447674306	1017.486196662568	1096.228642483818	779.880327589246	1190.929619524296	910.399294861718	736.011129210130	
5	11.096857142857	785.357878281152	1018.197531193285	535.844404102325	971.610777761879	1426.130198987549	319.180369397297	1093.136067014211	1349.546398408476	464.698365651019	1046.025570564574	1439.094140040419	645.231290962955	1004.978367659435	1489.659822776201	467.841057116239	1020.588989731930	938.624542383430	622.853248859085	973.648593705238	962.472016475957	352.883830028020	1048.647939306094	736.617896279035	591.852349491464	964.944279164836	632.189628039615	654.919936375278	1033.128247285230	578.039571357920	568.963944926070	1028.576242760385	489.323256531739	573.922933269964	1068.748419685249	804.021578253774	384.345287779311	1040.009924742460	673.817514268804	305.091485312766	1150.228824693380	623.106983695026	366.233485688099	1177.222820715889	540.177113814039	357.115498593887	1130.580978048758	464.561849084286	346.705966267168	1010.722160458690	379.667788908216	299.295275989977	1046.563631893463	251.651960499549	347.134674527022	997.411844710836	402.277355048626	581.107759113586	923.068497415455	300.306103526526	641.684684885359	960.254219937232	205.285469316708	575.385668838571	820.239472040443	42.854972264543	543.245199002210	991.497275653976	96.869867224815	579.919890324111	902.460879977210	37.041291461644	618.044203824934	1111.085689139694	42.419260660260	610.345086039509	894.384636766357	125.817829134235	387.271559111715	959.927702932636	102.570450870370	304.213679587259	1056.245619879735	144.795064579422	322.637241049622	1164.867196223506	65.809116569770	289.504641826441	876.522369255313	1076.606579773015	243.774429212646	906.859742363222	819.968766282309	234.177262692703	1029.014026902447	1095.246208227515	779.339337065996	1215.596042107281	924.542656456598	729.253495636868	
